<svg width="1000" height="1000" viewBox="0 0 1000 1000" fill="none" xmlns="http://www.w3.org/2000/svg">
<circle cx="500" cy="500" r="496" stroke="#DE6449" stroke-width="8"/>
<path d="M508 106C570.591 106 630.619 130.864 674.877 175.123C719.136 219.381 744 279.409 744 342C744 404.591 719.136 464.619 674.877 508.877C630.619 553.136 570.591 578 508 578" stroke="#DE6449" stroke-width="8"/>
<rect x="253.596" y="190.372" width="8" height="466" rx="4" transform="rotate(-32 253.596 190.372)" fill="#DE6449"/>
<path d="M500.5 110C500.5 106.026 503.591 102.774 507.5 102.516V898C507.5 899.933 505.933 901.5 504 901.5C502.067 901.5 500.5 899.933 500.5 898V110Z" fill="#DE6449" stroke="#DE6449"/>
</svg>
